<svg width="89" height="73" viewBox="0 0 89 73" fill="none" xmlns="http://www.w3.org/2000/svg">
<g filter="url(#filter0_d_33_147)">
<path d="M12.0234 15.7535L23.5661 16.0718L18.0704 5.91648L12.0234 15.7535ZM20.3875 12.3637C26.8208 9.13671 36.1277 5.04394 44.5187 3.49462C48.7173 2.71939 52.5941 2.59938 55.7359 3.47314C58.8302 4.33366 61.2183 6.15443 62.5614 9.3586L64.4059 8.58539C62.7969 4.74697 59.879 2.54943 56.2718 1.54626C52.7121 0.556322 48.4917 0.727229 44.1556 1.52786C35.477 3.13028 25.9639 7.32903 19.4908 10.576L20.3875 12.3637ZM62.5614 9.3586C63.4752 11.5383 63.4388 13.4674 62.795 15.2427C62.139 17.0516 60.8288 18.7617 59.0939 20.4129C57.3624 22.0609 55.2637 23.5985 53.0991 25.0801C50.9655 26.5404 48.7154 27.9798 46.8251 29.3503C44.9369 30.7193 43.2489 32.1275 42.2372 33.6098C41.7231 34.363 41.3533 35.1781 41.2458 36.0531C41.1365 36.9434 41.3073 37.8299 41.7723 38.6927C42.6716 40.3614 44.6531 41.9113 47.7704 43.462C50.9238 45.0308 55.3997 46.6765 61.509 48.4511L62.0669 46.5305C56.006 44.7699 51.66 43.1632 48.6612 41.6713C45.6262 40.1615 44.125 38.8427 43.5329 37.7439C43.2522 37.223 43.1751 36.7511 43.2309 36.2969C43.2886 35.8275 43.4968 35.312 43.8891 34.7373C44.6901 33.5637 46.1274 32.3265 47.999 30.9696C49.8683 29.6143 52.0123 28.2475 54.2287 26.7305C56.414 25.2348 58.621 23.624 60.4727 21.8617C62.321 20.1026 63.8716 18.1404 64.6752 15.9245C65.4909 13.675 65.5131 11.2266 64.4059 8.58539L62.5614 9.3586ZM61.509 48.4511C67.5698 50.2117 71.3973 51.886 73.4988 53.3891C74.5511 54.1419 75.0767 54.7862 75.288 55.2871C75.4741 55.728 75.442 56.1076 75.2013 56.5181C74.9302 56.9803 74.3719 57.5064 73.4408 58.0528C72.5228 58.5915 71.3167 59.1068 69.8522 59.5833C66.9245 60.536 63.0724 61.2994 58.6819 61.8117C49.9034 62.8362 39.1086 62.842 29.526 61.4332C24.7355 60.7289 20.2757 59.675 16.5342 58.2335C12.7806 56.7872 9.82545 54.9794 7.96035 52.8132L6.44471 54.1181C8.61122 56.6344 11.9068 58.5938 15.8152 60.0997C19.7357 61.6103 24.3491 62.6936 29.2351 63.4119C39.0054 64.8483 49.9766 64.8412 58.9137 63.7983C63.381 63.2769 67.3741 62.4929 70.4711 61.4852C72.019 60.9815 73.37 60.4133 74.453 59.7777C75.523 59.1498 76.4097 58.4109 76.9264 57.53C77.4734 56.5973 77.5721 55.5556 77.1307 54.5096C76.7146 53.5235 75.8546 52.6153 74.6623 51.7624C72.2744 50.0544 68.1762 48.3052 62.0669 46.5305L61.509 48.4511ZM7.96035 52.8132C7.03059 51.7333 6.55694 50.7705 6.39829 49.9228C6.24286 49.0923 6.37541 48.2998 6.78863 47.5101C7.64904 45.8658 9.73065 44.232 12.9443 42.6768C19.3176 39.5927 29.3877 37.1663 40.0768 35.3084C50.7367 33.4557 61.9079 32.1849 70.4206 31.3773C74.6754 30.9736 78.2627 30.6859 80.7856 30.4991C82.0471 30.4058 83.0422 30.3377 83.7216 30.2929C84.0612 30.2706 84.3219 30.254 84.4974 30.2431C84.5851 30.2377 84.6516 30.2336 84.696 30.2309C84.7181 30.2296 84.7348 30.2286 84.7459 30.2279C84.7514 30.2276 84.7555 30.2274 84.7582 30.2272C84.7596 30.2271 84.7606 30.2271 84.7612 30.227C84.7618 30.227 84.7621 30.227 84.7034 29.2287C84.6447 28.2304 84.6442 28.2304 84.6434 28.2305C84.6427 28.2305 84.6415 28.2306 84.64 28.2307C84.637 28.2309 84.6326 28.2311 84.6268 28.2315C84.6152 28.2322 84.598 28.2332 84.5752 28.2346C84.5297 28.2373 84.4621 28.2415 84.3732 28.247C84.1954 28.258 83.9323 28.2747 83.5901 28.2973C82.9058 28.3423 81.9052 28.4108 80.638 28.5046C78.1037 28.6922 74.5024 28.981 70.2316 29.3862C61.6932 30.1963 50.4654 31.4728 39.7343 33.338C29.0324 35.1981 18.7194 37.6603 12.0731 40.8765C8.77698 42.4716 6.1897 44.3409 5.01657 46.5829C4.41301 47.7363 4.18763 48.9827 4.43242 50.2907C4.67397 51.5814 5.35867 52.8567 6.44471 54.1181L7.96035 52.8132Z" fill="black"/>
</g>
<defs>
<filter id="filter0_d_33_147" x="0.334961" y="0.86438" width="88.4263" height="71.6759" filterUnits="userSpaceOnUse" color-interpolation-filters="sRGB">
<feFlood flood-opacity="0" result="BackgroundImageFix"/>
<feColorMatrix in="SourceAlpha" type="matrix" values="0 0 0 0 0 0 0 0 0 0 0 0 0 0 0 0 0 0 127 0" result="hardAlpha"/>
<feOffset dy="4"/>
<feGaussianBlur stdDeviation="2"/>
<feComposite in2="hardAlpha" operator="out"/>
<feColorMatrix type="matrix" values="0 0 0 0 0 0 0 0 0 0 0 0 0 0 0 0 0 0 0.25 0"/>
<feBlend mode="normal" in2="BackgroundImageFix" result="effect1_dropShadow_33_147"/>
<feBlend mode="normal" in="SourceGraphic" in2="effect1_dropShadow_33_147" result="shape"/>
</filter>
</defs>
</svg>
