<svg width="309" height="74" viewBox="0 0 309 74" fill="none" xmlns="http://www.w3.org/2000/svg">
<g filter="url(#filter0_d_363_883)">
<path d="M65.9652 3.21956L66.2429 2.69487L66.2429 2.69487L65.9652 3.21956ZM115.826 66.0882L115.669 66.6607L115.826 66.0882ZM168.563 20.4526L168.187 19.9935L168.563 20.4526ZM306.524 41.8067C306.678 42.0959 306.569 42.4556 306.28 42.6101L301.567 45.1279C301.278 45.2825 300.918 45.1733 300.764 44.8841C300.609 44.5949 300.719 44.2352 301.008 44.0807L305.197 41.8426L302.959 37.6538C302.804 37.3646 302.913 37.0049 303.202 36.8504C303.492 36.6959 303.851 36.8051 304.006 37.0942L306.524 41.8067ZM3.45136 26.6092C5.53935 29.0534 7.60647 30.2558 9.658 30.5979C11.7155 30.941 13.8501 30.4345 16.0996 29.2794C20.6348 26.9507 25.4047 22.1176 30.5718 16.9782C35.6963 11.8811 41.1835 6.51583 47.0732 3.32277C52.9993 0.110028 59.3902 -0.932316 66.2429 2.69487L65.6874 3.74425C59.2759 0.35058 53.316 1.28889 47.6391 4.36657C41.9259 7.46393 36.5578 12.6989 31.4091 17.82C26.303 22.8988 21.3817 27.9018 16.642 30.3356C14.254 31.5618 11.8552 32.168 9.4627 31.7691C7.06419 31.3691 4.76464 29.9745 2.54859 27.3803L3.45136 26.6092ZM66.2429 2.69487C79.7523 9.84547 83.4542 23.4186 88.156 36.0828C90.5203 42.451 93.135 48.6117 97.3271 53.7818C101.506 58.9357 107.273 63.1282 115.983 65.5156L115.669 66.6607C106.72 64.208 100.741 59.8771 96.4048 54.5296C92.0821 49.1983 89.413 42.8797 87.0429 36.496C82.276 23.6564 78.7066 10.6354 65.6874 3.74425L66.2429 2.69487ZM115.983 65.5156C144.146 73.2348 164.689 55.8519 174.466 39.4952C176.906 35.4132 178.663 31.4125 179.694 27.9087C180.729 24.3883 181.013 21.4307 180.576 19.4062C180.358 18.4006 179.973 17.6694 179.459 17.1981C178.957 16.7368 178.28 16.4768 177.371 16.5015C175.498 16.5526 172.717 17.8152 168.94 20.9117L168.187 19.9935C172.001 16.867 175.047 15.3771 177.339 15.3147C178.512 15.2827 179.502 15.6257 180.262 16.3233C181.011 17.0108 181.485 17.9944 181.736 19.1554C182.235 21.464 181.891 24.6472 180.833 28.2437C179.77 31.8567 177.969 35.949 175.485 40.1044C165.566 56.6979 144.558 74.5789 115.669 66.6607L115.983 65.5156ZM168.94 20.9117C163.136 25.6693 161.065 31.1966 161.81 36.6023C162.559 42.0418 166.177 47.4762 171.995 51.9597C183.624 60.9219 203.865 65.9279 226.411 59.4541L226.738 60.5953C203.869 67.162 183.229 62.1167 171.27 52.9001C165.293 48.2943 161.439 42.6074 160.634 36.7643C159.824 30.8873 162.116 24.9706 168.187 19.9935L168.94 20.9117ZM226.411 59.4541C249.068 52.9483 259.533 45.7015 269.162 41.4C273.98 39.2475 278.57 37.8482 284.309 37.7108C290.034 37.5737 296.865 38.6935 306.172 41.5184L305.828 42.6546C296.583 39.8484 289.887 38.7649 284.337 38.8977C278.801 39.0303 274.369 40.3743 269.646 42.4841C260.192 46.7072 249.496 54.0605 226.738 60.5953L226.411 59.4541Z" fill="black"/>
</g>
<defs>
<filter id="filter0_d_363_883" x="0.174185" y="0.40625" width="308.794" height="72.9383" filterUnits="userSpaceOnUse" color-interpolation-filters="sRGB">
<feFlood flood-opacity="0" result="BackgroundImageFix"/>
<feColorMatrix in="SourceAlpha" type="matrix" values="0 0 0 0 0 0 0 0 0 0 0 0 0 0 0 0 0 0 127 0" result="hardAlpha"/>
<feOffset dy="2.37464"/>
<feGaussianBlur stdDeviation="1.18732"/>
<feComposite in2="hardAlpha" operator="out"/>
<feColorMatrix type="matrix" values="0 0 0 0 0 0 0 0 0 0 0 0 0 0 0 0 0 0 0.25 0"/>
<feBlend mode="normal" in2="BackgroundImageFix" result="effect1_dropShadow_363_883"/>
<feBlend mode="normal" in="SourceGraphic" in2="effect1_dropShadow_363_883" result="shape"/>
</filter>
</defs>
</svg>
