<svg width="309" height="74" viewBox="0 0 309 74" fill="none" xmlns="http://www.w3.org/2000/svg">
<g filter="url(#filter0_d_361_846)">
<path d="M243.035 3.22297L242.757 2.69846L242.757 2.69846L243.035 3.22297ZM193.174 66.1882L193.331 66.7607L193.174 66.1882ZM140.437 20.4825L140.813 20.0237L140.437 20.4825ZM2.47627 41.8701C2.32189 42.1593 2.43122 42.519 2.72046 42.6734L7.43403 45.1892C7.72328 45.3436 8.08291 45.2342 8.23729 44.945C8.39168 44.6557 8.28235 44.2961 7.9931 44.1417L3.80327 41.9054L6.03956 37.7156C6.19394 37.4264 6.08461 37.0667 5.79536 36.9123C5.50612 36.758 5.14648 36.8673 4.9921 37.1565L2.47627 41.8701ZM305.548 26.6494C303.46 29.0976 301.393 30.3017 299.342 30.6443C297.285 30.9879 295.15 30.4807 292.901 29.3238C288.366 26.9916 283.596 22.151 278.429 17.0037C273.304 11.8988 267.817 6.5253 261.927 3.32732C256.001 0.109592 249.61 -0.934435 242.757 2.69846L243.313 3.74749C249.724 0.348732 255.684 1.2884 261.361 4.37076C267.074 7.47287 272.442 12.7159 277.591 17.8449C282.697 22.9314 287.618 27.9422 292.358 30.3797C294.746 31.6078 297.145 32.2151 299.537 31.8154C301.936 31.4148 304.236 30.0179 306.452 27.4199L305.548 26.6494ZM242.757 2.69846C229.248 9.86 225.546 23.4537 220.844 36.1373C218.48 42.5154 215.865 48.6856 211.673 53.8638C207.494 59.0258 201.727 63.2247 193.017 65.6157L193.331 66.7607C202.28 64.3041 208.26 59.9665 212.595 54.6109C216.918 49.2716 219.587 42.9434 221.957 36.55C226.724 23.6906 230.294 10.6492 243.313 3.74749L242.757 2.69846ZM193.017 65.6157C164.854 73.3466 144.312 55.9375 134.534 39.5552C132.094 35.4668 130.337 31.4599 129.306 27.9505C128.271 24.4247 127.987 21.4621 128.424 19.4341C128.642 18.4267 129.027 17.6942 129.541 17.222C130.044 16.76 130.72 16.4997 131.629 16.5245C133.501 16.5755 136.283 17.8399 140.06 20.9413L140.813 20.0237C137 16.8924 133.953 15.4001 131.661 15.3376C130.487 15.3055 129.498 15.6492 128.738 16.3478C127.989 17.0363 127.515 18.0211 127.264 19.1837C126.765 21.4954 127.109 24.6831 128.167 28.2851C129.23 31.9035 131.031 36.0019 133.515 40.1637C143.433 56.7822 164.441 74.6912 193.331 66.7607L193.017 65.6157ZM140.06 20.9413C145.863 25.7063 147.935 31.2425 147.19 36.6572C146.441 42.1057 142.823 47.5486 137.005 52.039C125.376 61.015 105.135 66.0285 82.5897 59.5449L82.2616 60.6859C105.131 67.2628 125.771 62.2097 137.731 52.9789C143.707 48.3659 147.561 42.6705 148.366 36.819C149.176 30.9338 146.885 25.0084 140.813 20.0237L140.06 20.9413ZM82.5897 59.5449C59.9328 53.0291 49.4679 45.7712 39.8385 41.4631C35.0199 39.3073 30.4299 37.9057 24.6912 37.7681C18.9657 37.6308 12.1343 38.7523 2.82733 41.5816L3.17267 42.7176C12.4176 39.9072 19.1135 38.822 24.6627 38.9551C30.1986 39.0878 34.6307 40.4339 39.3537 42.5469C48.8074 46.7764 59.5035 54.1411 82.2616 60.6859L82.5897 59.5449Z" fill="black"/>
</g>
<defs>
<filter id="filter0_d_361_846" x="0.0316072" y="0.40625" width="308.795" height="73.0413" filterUnits="userSpaceOnUse" color-interpolation-filters="sRGB">
<feFlood flood-opacity="0" result="BackgroundImageFix"/>
<feColorMatrix in="SourceAlpha" type="matrix" values="0 0 0 0 0 0 0 0 0 0 0 0 0 0 0 0 0 0 127 0" result="hardAlpha"/>
<feOffset dy="2.37464"/>
<feGaussianBlur stdDeviation="1.18732"/>
<feComposite in2="hardAlpha" operator="out"/>
<feColorMatrix type="matrix" values="0 0 0 0 0 0 0 0 0 0 0 0 0 0 0 0 0 0 0.25 0"/>
<feBlend mode="normal" in2="BackgroundImageFix" result="effect1_dropShadow_361_846"/>
<feBlend mode="normal" in="SourceGraphic" in2="effect1_dropShadow_361_846" result="shape"/>
</filter>
</defs>
</svg>
